<svg width="94" height="94" viewBox="0 0 94 94" fill="none" xmlns="http://www.w3.org/2000/svg">
<path d="M92.7379 32.4293L84.1188 23.8102C83.4234 23.1241 82.4962 22.7236 81.52 22.6874C80.5438 22.6512 79.5896 22.9821 78.8453 23.6148C77.6963 24.5928 76.2218 25.1035 74.7141 25.0456C73.2063 24.9877 71.7753 24.3656 70.7047 23.3023C69.642 22.2318 69.0202 20.8012 68.9623 19.2939C68.9044 17.7866 69.4147 16.3125 70.3922 15.1637C71.0249 14.4194 71.3558 13.4652 71.3196 12.489C71.2835 11.5128 70.8829 10.5856 70.1969 9.89024L61.5699 1.26133C60.8409 0.533676 59.8529 0.125 58.8229 0.125C57.7928 0.125 56.8048 0.533676 56.0758 1.26133L42.3355 14.9996C41.4874 15.8511 40.8477 16.8872 40.4664 18.027C40.3922 18.2461 40.2685 18.4452 40.1049 18.6088C39.9413 18.7724 39.7422 18.8961 39.5231 18.9703C38.3828 19.3515 37.3465 19.992 36.4957 20.8414L1.26133 56.0758C0.533676 56.8048 0.125 57.7928 0.125 58.8229C0.125 59.8529 0.533676 60.8409 1.26133 61.5699L9.89024 70.1891C10.5856 70.8751 11.5128 71.2757 12.489 71.3118C13.4652 71.348 14.4194 71.0171 15.1637 70.3844C16.3099 69.3985 17.7864 68.8821 19.2973 68.9389C20.8082 68.9956 22.2418 69.6212 23.3109 70.6903C24.38 71.7594 25.0056 73.193 25.0623 74.7039C25.119 76.2147 24.6027 77.6912 23.6168 78.8375C22.9841 79.5817 22.6532 80.536 22.6894 81.5122C22.7255 82.4883 23.1261 83.4155 23.8121 84.1109L32.4313 92.7301C33.1603 93.4577 34.1483 93.8664 35.1783 93.8664C36.2084 93.8664 37.1963 93.4577 37.9254 92.7301L73.1598 57.4957C74.0089 56.6454 74.6494 55.6098 75.0309 54.4703C75.1047 54.2505 75.2285 54.0507 75.3925 53.8867C75.5565 53.7227 75.7563 53.5989 75.9762 53.525C77.1154 53.1438 78.1509 52.5041 79.0016 51.6559L92.7398 37.9156C93.4649 37.1866 93.8717 36.2002 93.8713 35.1721C93.8709 34.1439 93.4634 33.1578 92.7379 32.4293ZM48.1344 26.6383C47.8442 26.9285 47.4997 27.1588 47.1205 27.3159C46.7413 27.473 46.3349 27.5538 45.9244 27.5538C45.514 27.5538 45.1076 27.473 44.7284 27.3159C44.3492 27.1588 44.0046 26.9285 43.7145 26.6383L41.4664 24.3902C40.8946 23.8012 40.5776 23.0109 40.5837 22.19C40.5899 21.3692 40.9188 20.5837 41.4994 20.0034C42.08 19.423 42.8656 19.0944 43.6865 19.0886C44.5074 19.0828 45.2976 19.4002 45.8863 19.9723L48.1344 22.2184C48.4246 22.5086 48.6549 22.8531 48.812 23.2323C48.9691 23.6115 49.0499 24.0179 49.0499 24.4283C49.0499 24.8388 48.9691 25.2452 48.812 25.6244C48.6549 26.0036 48.4246 26.3481 48.1344 26.6383ZM56.7281 35.232C56.1421 35.8176 55.3476 36.1466 54.5191 36.1466C53.6907 36.1466 52.8962 35.8176 52.3102 35.232L50.1617 33.0836C49.5756 32.4975 49.2463 31.7025 49.2463 30.8736C49.2463 30.0447 49.5756 29.2498 50.1617 28.6637C50.7478 28.0776 51.5428 27.7483 52.3717 27.7483C53.2006 27.7483 53.9955 28.0776 54.5816 28.6637L56.7301 30.8121C57.0213 31.1023 57.2525 31.4471 57.4103 31.8267C57.568 32.2064 57.6494 32.6135 57.6495 33.0246C57.6497 33.4357 57.5688 33.8429 57.4113 34.2227C57.2539 34.6025 57.023 34.9475 56.732 35.2379L56.7281 35.232ZM65.3219 43.8258C65.0317 44.116 64.6872 44.3463 64.308 44.5034C63.9288 44.6605 63.5224 44.7413 63.1119 44.7413C62.7015 44.7413 62.2951 44.6605 61.9159 44.5034C61.5367 44.3463 61.1921 44.116 60.902 43.8258L58.7535 41.6773C58.1817 41.0883 57.8647 40.298 57.8709 39.4771C57.877 38.6563 58.206 37.8708 58.7865 37.2905C59.3671 36.7101 60.1528 36.3816 60.9736 36.3757C61.7945 36.3699 62.5847 36.6873 63.1734 37.2594L65.3219 39.4078C65.6139 39.6975 65.846 40.042 66.0046 40.4216C66.1632 40.8011 66.2453 41.2083 66.2462 41.6197C66.2471 42.031 66.1668 42.4385 66.0099 42.8188C65.8529 43.199 65.6224 43.5446 65.3316 43.8356L65.3219 43.8258ZM73.9996 52.525C73.7094 52.8153 73.3649 53.0455 72.9857 53.2026C72.6065 53.3597 72.2001 53.4405 71.7896 53.4405C71.3792 53.4405 70.9728 53.3597 70.5936 53.2026C70.2144 53.0455 69.8699 52.8153 69.5797 52.525L67.3453 50.2789C67.049 49.9896 66.8131 49.6442 66.6514 49.2629C66.4897 48.8816 66.4054 48.472 66.4034 48.0578C66.4014 47.6436 66.4818 47.2332 66.6399 46.8504C66.7979 46.4676 67.0305 46.12 67.3241 45.8278C67.6176 45.5357 67.9664 45.3048 68.3499 45.1486C68.7335 44.9924 69.1444 44.914 69.5585 44.918C69.9727 44.922 70.3819 45.0083 70.7624 45.1718C71.1429 45.3354 71.4871 45.573 71.775 45.8707L74.0113 48.1148C74.3015 48.4052 74.5316 48.7498 74.6885 49.1291C74.8454 49.5083 74.9261 49.9148 74.9259 50.3252C74.9257 50.7357 74.8447 51.142 74.6874 51.5212C74.5302 51.9003 74.2998 52.2447 74.0094 52.5348L73.9996 52.525Z" fill="white"/>
</svg>
