<svg width="84" height="84" viewBox="0 0 84 84" fill="none" xmlns="http://www.w3.org/2000/svg">
<path d="M4.5026 21.1693V4.5026L21.1693 12.8359L4.5026 21.1693ZM67.0026 21.1693V4.5026L83.6693 12.8359L67.0026 21.1693ZM37.8359 17.0026V0.335938L54.5026 8.66927L37.8359 17.0026ZM29.5026 83.1484C25.8915 82.8012 22.3498 82.2804 18.8776 81.5859C15.4054 80.8915 12.297 80.0415 9.5526 79.0359C6.80816 78.0304 4.58594 76.8665 2.88594 75.5443C1.18594 74.222 0.335938 72.7637 0.335938 71.1693V33.6693C0.335938 31.9332 1.43038 30.3193 3.61927 28.8276C5.80816 27.3359 8.77622 26.0165 12.5234 24.8693C16.2707 23.722 20.6804 22.8193 25.7526 22.1609C30.8248 21.5026 36.2415 21.172 42.0026 21.1693C47.7637 21.1665 53.1804 21.497 58.2526 22.1609C63.3248 22.8248 67.7345 23.7276 71.4818 24.8693C75.229 26.0109 78.1984 27.3304 80.3901 28.8276C82.5818 30.3248 83.6748 31.9387 83.6693 33.6693V71.1693C83.6693 72.7665 82.8193 74.2248 81.1193 75.5443C79.4193 76.8637 77.197 78.0276 74.4526 79.0359C71.7082 80.0443 68.5998 80.8943 65.1276 81.5859C61.6554 82.2776 58.1137 82.7984 54.5026 83.1484V62.8359H29.5026V83.1484ZM42.0026 37.8359C48.7387 37.8359 54.5554 37.4359 59.4526 36.6359C64.3498 35.8359 68.2554 34.9165 71.1693 33.8776C71.1693 33.5304 68.5304 32.7151 63.2526 31.4318C57.9748 30.1484 50.8915 29.5054 42.0026 29.5026C33.1137 29.4998 26.0304 30.1429 20.7526 31.4318C15.4748 32.7207 12.8359 33.5359 12.8359 33.8776C15.7526 34.9193 19.6582 35.8401 24.5526 36.6401C29.447 37.4401 35.2637 37.8387 42.0026 37.8359Z" fill="white"/>
</svg>
