<svg width="100" height="100" viewBox="0 0 100 100" fill="none" xmlns="http://www.w3.org/2000/svg">
<path d="M76.4423 0.0514914C75.5808 0.144063 74.7757 0.524694 74.1577 1.1317L50 25.2808L37.3808 12.6604C37.0171 12.2972 36.5854 12.0091 36.1104 11.8126C35.6353 11.6161 35.1262 11.5151 34.6121 11.5153C34.098 11.5155 33.5889 11.6168 33.114 11.8136C32.6391 12.0105 32.2076 12.2988 31.8442 12.6623C31.1103 13.3964 30.6982 14.3918 30.6985 15.4295C30.6987 15.9434 30.8002 16.4522 30.9971 16.9268C31.194 17.4015 31.4825 17.8328 31.8462 18.196L44.4692 30.8049H11.5385C8.47827 30.8049 5.54342 32.0199 3.37954 34.1827C1.21566 36.3454 0 39.2788 0 42.3374L0 88.4675C0 91.5261 1.21566 94.4594 3.37954 96.6222C5.54342 98.785 8.47827 100 11.5385 100H88.4615C91.5217 100 94.4566 98.785 96.6205 96.6222C98.7843 94.4594 100 91.5261 100 88.4675V42.3374C100 39.2788 98.7843 36.3454 96.6205 34.1827C94.4566 32.0199 91.5217 30.8049 88.4615 30.8049H55.5269L79.6885 6.65962C80.2937 6.09721 80.7017 5.3549 80.8518 4.54265C81.002 3.7304 80.8864 2.8914 80.5222 2.14995C80.1579 1.40849 79.5644 0.804016 78.8296 0.426055C78.0948 0.0480947 77.2577 -0.0832449 76.4423 0.0514914ZM40.3846 38.4932C69.0192 38.4932 73.0769 38.574 73.0769 65.4024C73.0769 92.2348 68.7385 92.3117 40.3846 92.3117C11.9 92.3117 7.69231 92.0272 7.69231 65.4024C7.69231 38.7854 11.9 38.4932 40.3846 38.4932ZM86.5385 49.7874C89.8692 49.7874 92.55 52.4629 92.55 55.792C92.5515 56.5815 92.3971 57.3635 92.0955 58.0931C91.7939 58.8228 91.3512 59.4858 90.7926 60.044C90.2341 60.6022 89.5708 61.0448 88.8408 61.3462C88.1107 61.6476 87.3283 61.802 86.5385 61.8004C85.7486 61.802 84.9662 61.6476 84.2361 61.3462C83.5061 61.0448 82.8428 60.6022 82.2843 60.044C81.7257 59.4858 81.283 58.8228 80.9814 58.0931C80.6799 57.3635 80.5254 56.5815 80.5269 55.792C80.5254 55.0025 80.6799 54.2205 80.9814 53.4909C81.283 52.7612 81.7257 52.0982 82.2843 51.54C82.8428 50.9818 83.5061 50.5392 84.2361 50.2378C84.9662 49.9364 85.7486 49.7859 86.5385 49.7874ZM86.5385 65.1641C89.8692 65.1641 92.55 67.8396 92.55 71.1687C92.5515 71.9582 92.3971 72.7402 92.0955 73.4698C91.7939 74.1995 91.3512 74.8625 90.7926 75.4207C90.2341 75.9789 89.5708 76.4215 88.8408 76.7229C88.1107 77.0243 87.3283 77.1787 86.5385 77.1771C85.7486 77.1787 84.9662 77.0243 84.2361 76.7229C83.5061 76.4215 82.8428 75.9789 82.2843 75.4207C81.7257 74.8625 81.283 74.1995 80.9814 73.4698C80.6799 72.7402 80.5254 71.9582 80.5269 71.1687C80.5254 70.3792 80.6799 69.5972 80.9814 68.8676C81.283 68.1379 81.7257 67.4749 82.2843 66.9167C82.8428 66.3585 83.5061 65.9159 84.2361 65.6145C84.9662 65.3131 85.7486 65.1626 86.5385 65.1641Z" fill="white"/>
</svg>
