<svg width="87" height="83" viewBox="0 0 87 83" fill="none" xmlns="http://www.w3.org/2000/svg">
<path d="M3.99076 3.53425C5.23174 2.29364 6.76601 1.38663 8.45118 0.897407C10.1364 0.408182 11.9178 0.352595 13.6302 0.735805C15.3426 1.11902 16.9304 1.9286 18.2463 3.08943C19.5623 4.25026 20.5636 5.7247 21.1574 7.37592C26.2682 5.33533 31.852 4.78224 37.2637 5.78054C42.6755 6.77884 47.6944 9.2878 51.7408 13.0176L52.6033 13.8468L85.0116 46.2551C86.4949 47.7343 86.6074 50.1343 85.3533 51.7593L85.0116 52.1468L76.1741 60.9884C75.5497 61.6129 74.7431 62.0229 73.8707 62.1592C72.9982 62.2954 72.105 62.151 71.3199 61.7467L70.8574 61.4676L55.9241 51.1301C51.656 57.317 45.1643 61.6174 37.8027 63.1345C30.4411 64.6515 22.7781 63.268 16.4117 59.2726C10.0453 55.2771 5.46715 48.9782 3.63197 41.6894C1.79679 34.4006 2.84629 26.6847 6.56159 20.1509C5.10717 19.3973 3.85099 18.3112 2.89507 16.9809C1.93915 15.6507 1.31043 14.1137 1.05998 12.4949C0.809519 10.8761 0.944381 9.22097 1.45361 7.66403C1.96284 6.10709 2.83209 4.6922 3.99076 3.53425ZM42.2908 24.1884C40.9365 22.8342 39.3288 21.7599 37.5593 21.027C35.7899 20.2941 33.8935 19.9168 31.9783 19.9168C30.063 19.9168 28.1666 20.2941 26.3972 21.027C24.6278 21.7599 23.02 22.8342 21.6658 24.1884C18.9307 26.9235 17.3942 30.633 17.3942 34.5009C17.3942 38.3689 18.9307 42.0784 21.6658 44.8134C24.4008 47.5485 28.1103 49.085 31.9783 49.085C35.8462 49.085 39.5557 47.5485 42.2908 44.8134C45.0258 42.0784 46.5623 38.3689 46.5623 34.5009C46.5623 30.633 45.0258 26.9235 42.2908 24.1884ZM27.5616 30.0801C28.1358 29.4733 28.8258 28.9878 29.5908 28.6523C30.3559 28.3167 31.1804 28.138 32.0157 28.1266C32.8511 28.1151 33.6802 28.2713 34.4541 28.5858C35.228 28.9003 35.9311 29.3668 36.5216 29.9576C37.1122 30.5484 37.5783 31.2517 37.8925 32.0258C38.2066 32.7999 38.3624 33.629 38.3506 34.4644C38.3387 35.2997 38.1596 36.1241 37.8237 36.889C37.4878 37.6539 37.002 38.3437 36.3949 38.9176C35.2123 40.0357 33.6401 40.6484 32.0128 40.6253C30.3855 40.6023 28.8313 39.9454 27.6807 38.7943C26.5302 37.6433 25.874 36.0888 25.8518 34.4614C25.8295 32.834 26.4429 31.2622 27.5616 30.0801ZM12.8283 9.42592C12.6361 9.22694 12.4062 9.06823 12.152 8.95904C11.8978 8.84986 11.6245 8.79239 11.3478 8.78998C11.0712 8.78758 10.7969 8.84029 10.5409 8.94504C10.2848 9.04979 10.0522 9.20449 9.8566 9.4001C9.66099 9.59571 9.5063 9.82831 9.40155 10.0843C9.2968 10.3404 9.24408 10.6147 9.24649 10.8913C9.24889 11.168 9.30636 11.4413 9.41555 11.6955C9.52473 11.9497 9.68345 12.1796 9.88243 12.3718C10.2753 12.7512 10.8016 12.9612 11.3478 12.9565C11.8941 12.9517 12.4166 12.7326 12.8029 12.3464C13.1891 11.9601 13.4082 11.4376 13.413 10.8913C13.4177 10.3451 13.2078 9.81884 12.8283 9.42592Z" fill="white"/>
</svg>
