<svg width="100" height="100" viewBox="0 0 100 100" fill="none" xmlns="http://www.w3.org/2000/svg">
<path d="M49.75 79.9999C51.5 79.9999 52.98 79.3949 54.19 78.1849C55.4 76.9749 56.0033 75.4966 56 73.7499C55.9966 72.0033 55.3933 70.5233 54.19 69.3099C52.9866 68.0966 51.5066 67.4933 49.75 67.4999C47.9933 67.5066 46.515 68.1116 45.315 69.3149C44.115 70.5183 43.51 71.9966 43.5 73.7499C43.49 75.5033 44.095 76.9833 45.315 78.1899C46.535 79.3966 48.0133 79.9999 49.75 79.9999ZM45.25 60.7499H54.5C54.5 57.9999 54.8133 55.8333 55.44 54.25C56.0666 52.6666 57.8366 50.5 60.75 47.75C62.9166 45.5833 64.625 43.52 65.875 41.56C67.125 39.6 67.75 37.2466 67.75 34.5C67.75 29.8333 66.0416 26.25 62.625 23.75C59.2083 21.25 55.1666 20 50.5 20C45.75 20 41.8966 21.25 38.94 23.75C35.9833 26.25 33.92 29.25 32.75 32.75L41 36C41.4166 34.5 42.355 32.875 43.815 31.125C45.275 29.375 47.5033 28.5 50.5 28.5C53.1666 28.5 55.1666 29.23 56.5 30.69C57.8333 32.15 58.5 33.7533 58.5 35.5C58.5 37.1666 58 38.73 57 40.19C56 41.65 54.75 43.0033 53.25 44.25C49.5833 47.5 47.3333 49.9583 46.5 51.625C45.6666 53.2916 45.25 56.3333 45.25 60.7499ZM50 99.9999C43.0833 99.9999 36.5833 98.6882 30.5 96.0649C24.4167 93.4416 19.125 89.8783 14.625 85.3749C10.125 80.8716 6.56334 75.5799 3.94 69.4999C1.31667 63.4199 0.00333966 56.92 6.32911e-06 50C-0.003327 43.08 1.31001 36.58 3.94 30.5C6.57 24.42 10.1317 19.1283 14.625 14.625C19.1183 10.1217 24.41 6.56002 30.5 3.94002C36.59 1.32002 43.09 0.00669191 50 2.52525e-05C56.91 -0.00664141 63.41 1.30669 69.5 3.94002C75.59 6.57335 80.8816 10.135 85.375 14.625C89.8683 19.115 93.4316 24.4067 96.0649 30.5C98.6983 36.5933 100.01 43.0933 99.9999 50C99.9899 56.9066 98.6766 63.4066 96.0599 69.4999C93.4433 75.5933 89.8816 80.8849 85.375 85.3749C80.8683 89.8649 75.5766 93.4282 69.5 96.0649C63.4233 98.7016 56.9233 100.013 50 99.9999ZM50 89.9999C61.1666 89.9999 70.625 86.1249 78.3749 78.3749C86.1249 70.6249 89.9999 61.1666 89.9999 50C89.9999 38.8333 86.1249 29.375 78.3749 21.625C70.625 13.875 61.1666 10 50 10C38.8333 10 29.375 13.875 21.625 21.625C13.875 29.375 10 38.8333 10 50C10 61.1666 13.875 70.6249 21.625 78.3749C29.375 86.1249 38.8333 89.9999 50 89.9999Z" fill="white"/>
</svg>
