<svg width="100" height="95" viewBox="0 0 100 95" fill="none" xmlns="http://www.w3.org/2000/svg">
<path d="M80 10.31V0H20V10.31H0V25C0 37.625 9.445 47.99 21.62 49.66C23.3648 54.7734 26.4582 59.3208 30.5735 62.8217C34.6887 66.3226 39.673 68.6472 45 69.55V75C45 77.6522 43.9464 80.1957 42.0711 82.0711C40.1957 83.9464 37.6522 85 35 85H30V95H70V85H65C62.3478 85 59.8043 83.9464 57.9289 82.0711C56.0536 80.1957 55 77.6522 55 75V69.55C60.327 68.6472 65.3113 66.3226 69.4265 62.8217C73.5418 59.3208 76.6352 54.7734 78.38 49.66C90.555 47.99 100 37.625 100 25V10.31H80ZM10 25V20.31H20V39.14C17.0758 38.1061 14.544 36.1913 12.7532 33.659C10.9623 31.1267 10.0004 28.1016 10 25ZM90 25C89.9933 28.1007 89.0291 31.1236 87.2391 33.6555C85.4492 36.1874 82.9209 38.1046 80 39.145V20.31H90V25Z" fill="white"/>
</svg>
